<svg xmlns="http://www.w3.org/2000/svg" width="240" height="240" viewBox="-120 -180 240 240" role="img" aria-label="dish" data-anchor-x="120" data-anchor-y="180"><defs><pattern id="rf-prop-dish-dither" width="4" height="4" patternUnits="userSpaceOnUse"><rect width="4" height="4" fill="#fff"/><rect width="1" height="1" fill="#000"/><rect x="2" y="2" width="1" height="1" fill="#000"/></pattern>
<pattern id="rf-prop-dish-dense" width="4" height="4" patternUnits="userSpaceOnUse"><rect width="4" height="4" fill="#fff"/><path d="M0 0h2v2H0zM2 2h2v2H2z" fill="#000"/></pattern>
<pattern id="rf-prop-dish-grid" width="32" height="32" patternUnits="userSpaceOnUse"><path d="M14 16h4M16 14v4" stroke="#000" stroke-width=".8"/></pattern>
<pattern id="rf-prop-dish-hatch" width="7" height="7" patternUnits="userSpaceOnUse"><rect width="7" height="7" fill="#fff"/><path d="M-1 1l2-2M0 7L7 0M6 8l2-2" stroke="#000"/></pattern>
<pattern id="rf-prop-dish-water" width="44" height="30" patternUnits="userSpaceOnUse"><rect width="44" height="30" fill="#000"/><path d="M3 6h18m9 14h11M5 23h7" stroke="#fff" stroke-width="2"/></pattern></defs><g stroke="#000" stroke-width="2" stroke-linejoin="miter"><polygon points="31.61,-11.02 3.031,-1.78 3.031,10.22 31.61,0.98" fill="url(#rf-prop-dish-dither)"/><polygon points="3.031,-1.78 -31.61,-12.98 -31.61,-0.98 3.031,10.22" fill="#000" stroke="#fff" stroke-width="1.5"/><polygon points="-3.031,-22.22 31.61,-11.02 3.031,-1.78 -31.61,-12.98" fill="#fff"/></g><path d="M-9-7l8-40 12 6 7 39" fill="url(#rf-prop-dish-dither)" stroke="#000" stroke-width="2"/><path d="M-39-77L25-44C7-16-24-20-39-77Z" fill="#fff" stroke="#000" stroke-width="2"/><path d="M-39-77L25-44l-5 8-55-29z" fill="url(#rf-prop-dish-dither)" stroke="#000" stroke-width="2"/><path d="M-16-52L5-84M-30-67L5-84 14-49" fill="none" stroke="#fff" stroke-width="4"/><path d="M-16-52L5-84M-30-67L5-84 14-49" fill="none" stroke="#000" stroke-width="2"/><rect x="2" y="-88" width="7" height="6" fill="#CCFF00" stroke="#000" stroke-width="2"/></svg>
