<svg xmlns="http://www.w3.org/2000/svg" width="240" height="240" viewBox="-120 -180 240 240" role="img" aria-label="planter" data-anchor-x="120" data-anchor-y="180"><defs><pattern id="rf-prop-planter-dither" width="4" height="4" patternUnits="userSpaceOnUse"><rect width="4" height="4" fill="#fff"/><rect width="1" height="1" fill="#000"/><rect x="2" y="2" width="1" height="1" fill="#000"/></pattern>
<pattern id="rf-prop-planter-dense" width="4" height="4" patternUnits="userSpaceOnUse"><rect width="4" height="4" fill="#fff"/><path d="M0 0h2v2H0zM2 2h2v2H2z" fill="#000"/></pattern>
<pattern id="rf-prop-planter-grid" width="32" height="32" patternUnits="userSpaceOnUse"><path d="M14 16h4M16 14v4" stroke="#000" stroke-width=".8"/></pattern>
<pattern id="rf-prop-planter-hatch" width="7" height="7" patternUnits="userSpaceOnUse"><rect width="7" height="7" fill="#fff"/><path d="M-1 1l2-2M0 7L7 0M6 8l2-2" stroke="#000"/></pattern>
<pattern id="rf-prop-planter-water" width="44" height="30" patternUnits="userSpaceOnUse"><rect width="44" height="30" fill="#000"/><path d="M3 6h18m9 14h11M5 23h7" stroke="#fff" stroke-width="2"/></pattern></defs><g stroke="#000" stroke-width="2" stroke-linejoin="miter"><polygon points="32.043,-17.04 6.062,-8.64 6.062,10.36 32.043,1.96" fill="url(#rf-prop-planter-dither)"/><polygon points="6.062,-8.64 -32.043,-20.96 -32.043,-1.96 6.062,10.36" fill="#000" stroke="#fff" stroke-width="1.5"/><polygon points="-6.062,-29.36 32.043,-17.04 6.062,-8.64 -32.043,-20.96" fill="url(#rf-prop-planter-dither)"/></g><g transform="translate(-10 -24) scale(.85)"><path d="M-2 0h4v-18h-4zM-2-6h-6v-4h6M2-3h6v-4H2" fill="#000"/><path d="M-6-22h12v8H-6zM-2-26h4v16h-4z" fill="#fff" stroke="#000" stroke-width="2"/><rect x="-2" y="-20" width="4" height="4" fill="#000"/></g><path d="M8-23v-20m0 8l-10-9m10 4l10-13M-6-19v-26m0 9l-10-8m10 1l7-9" stroke="#000" stroke-width="3" fill="none"/><path d="M-16-42h8v7h-8M15-55h7v7h-7" fill="#fff" stroke="#000" stroke-width="2"/></svg>
