<svg xmlns="http://www.w3.org/2000/svg" width="240" height="240" viewBox="-120 -180 240 240" role="img" aria-label="vent" data-anchor-x="120" data-anchor-y="180"><defs><pattern id="rf-prop-vent-dither" width="4" height="4" patternUnits="userSpaceOnUse"><rect width="4" height="4" fill="#fff"/><rect width="1" height="1" fill="#000"/><rect x="2" y="2" width="1" height="1" fill="#000"/></pattern>
<pattern id="rf-prop-vent-dense" width="4" height="4" patternUnits="userSpaceOnUse"><rect width="4" height="4" fill="#fff"/><path d="M0 0h2v2H0zM2 2h2v2H2z" fill="#000"/></pattern>
<pattern id="rf-prop-vent-grid" width="32" height="32" patternUnits="userSpaceOnUse"><path d="M14 16h4M16 14v4" stroke="#000" stroke-width=".8"/></pattern>
<pattern id="rf-prop-vent-hatch" width="7" height="7" patternUnits="userSpaceOnUse"><rect width="7" height="7" fill="#fff"/><path d="M-1 1l2-2M0 7L7 0M6 8l2-2" stroke="#000"/></pattern>
<pattern id="rf-prop-vent-water" width="44" height="30" patternUnits="userSpaceOnUse"><rect width="44" height="30" fill="#000"/><path d="M3 6h18m9 14h11M5 23h7" stroke="#fff" stroke-width="2"/></pattern></defs><g stroke="#000" stroke-width="2" stroke-linejoin="miter"><polygon points="36.373,-27.6 4.33,-17.24 4.33,11.76 36.373,1.4" fill="url(#rf-prop-vent-dither)"/><polygon points="4.33,-17.24 -36.373,-30.4 -36.373,-1.4 4.33,11.76" fill="#000" stroke="#fff" stroke-width="1.5"/><polygon points="-4.33,-40.76 36.373,-27.6 4.33,-17.24 -36.373,-30.4" fill="#fff"/></g><path d="M-18-35l29 9m-35-5l29 9m-35-5l29 9m-35-5l29 9" stroke="#000" stroke-width="3"/><path d="M24-7v-12m6 10v-12" stroke="#000" stroke-width="2"/></svg>
